<svg width="24" height="24" viewBox="0 0 24 24" fill="none" xmlns="http://www.w3.org/2000/svg">
    <path fill-rule="evenodd" clip-rule="evenodd" d="M2.87198 5.30106V18.3011H20.872V5.30106H2.87198ZM19.872 6.30106H3.87198V12.1586L8.40909 8.52893L10.0649 10.1848C10.7447 8.51434 12.3838 7.33685 14.2985 7.33685C16.8218 7.33685 18.8674 9.38242 18.8674 11.9057C18.8674 12.6545 18.6869 13.3623 18.3669 13.9868L19.872 15.4918V6.30106ZM17.6128 13.2326C17.777 12.8228 17.8674 12.3752 17.8674 11.9057C17.8674 9.9347 16.2695 8.33685 14.2985 8.33685C12.6505 8.33685 11.2628 9.45422 10.8527 10.9726L12.4091 12.5289L14.9091 10.5289L17.6128 13.2326ZM3.87198 17.3011V13.4392L8.33487 9.86893L12.3349 13.8689L14.8349 11.8689L19.872 16.906V17.3011H3.87198Z" fill="#212132"/>
</svg>